<?xml version="1.0" standalone="no"?>
<!DOCTYPE svg PUBLIC "-//W3C//DTD SVG 20010904//EN"
 "http://www.w3.org/TR/2001/REC-SVG-20010904/DTD/svg10.dtd">
<svg version="1.0" xmlns="http://www.w3.org/2000/svg"
 width="300.000000pt" height="300.000000pt" viewBox="0 0 300.000000 300.000000"
 preserveAspectRatio="xMidYMid meet">
<metadata>
Created by potrace 1.16, written by Peter Selinger 2001-2019
</metadata>
<g transform="translate(0.000000,300.000000) scale(0.100000,-0.100000)"
fill="#000000" stroke="none">
<path d="M1483 2874 c-3 -8 -3 -39 1 -69 8 -70 -3 -175 -19 -175 -16 0 -25 55
-25 163 l0 87 -42 0 c-69 0 -118 -11 -118 -26 0 -8 -5 -14 -11 -14 -5 0 -7 5
-4 10 10 16 -32 12 -49 -5 -8 -8 -21 -12 -29 -10 -7 3 -40 -4 -71 -16 -52 -19
-57 -23 -52 -45 9 -36 57 -139 67 -142 4 -2 6 -9 3 -17 -3 -7 -1 -16 5 -20 18
-10 13 -42 -7 -47 -16 -4 -27 13 -67 101 -26 58 -51 110 -55 114 -15 17 -155
-68 -271 -164 l-61 -51 88 -89 c49 -49 93 -89 98 -89 6 0 28 17 50 38 22 20 4
-2 -39 -49 -128 -137 -197 -278 -230 -463 -19 -110 -19 -157 0 -271 48 -296
225 -533 488 -654 140 -65 193 -76 362 -76 129 0 160 3 225 23 166 52 278 120
391 238 159 167 239 371 239 606 -1 170 -46 326 -140 478 l-22 35 26 -30 c14
-16 37 -52 52 -80 15 -27 28 -51 29 -53 2 -2 50 21 109 50 68 34 106 58 106
68 0 29 -104 191 -164 257 l-59 64 -81 -87 c-45 -49 -80 -94 -79 -102 0 -9 -8
-5 -23 9 -13 12 -24 25 -24 27 0 3 3 3 6 0 6 -7 174 168 174 182 0 6 -4 10 -9
10 -5 0 -28 18 -52 40 -34 31 -49 39 -68 35 -18 -5 -22 -3 -18 9 8 21 -33 51
-45 33 -5 -8 -8 -7 -8 5 0 19 -114 83 -134 75 -6 -3 -30 -54 -54 -115 -32 -83
-47 -110 -57 -105 -20 7 -21 4 25 132 l40 112 -36 15 c-47 20 -200 50 -287 58
-55 4 -69 2 -74 -10z m213 -294 c239 -60 433 -220 550 -455 107 -215 111 -502
8 -719 -17 -37 -30 -53 -40 -49 -9 3 -12 13 -8 27 7 31 -23 266 -47 361 -33
131 -96 276 -169 392 l-14 22 -29 -25 c-16 -13 -35 -24 -43 -24 -19 0 -18 -7
16 -91 77 -187 105 -337 101 -541 -1 -68 -1 -68 -30 -68 -37 0 -49 26 -15 34
13 4 24 11 24 17 0 8 -4 8 -14 0 -18 -15 -28 -1 -51 78 -16 54 -17 64 -4 71
31 18 54 39 48 44 -3 3 -22 -6 -42 -19 l-36 -25 -15 28 c-8 16 -26 40 -40 53
-25 23 -34 49 -18 49 4 0 21 12 37 26 l30 26 -48 -26 -48 -25 -37 23 c-31 20
-74 38 -92 41 -18 2 -30 18 -21 28 5 7 11 21 13 32 1 11 6 22 9 25 13 10 80
152 75 158 -7 7 -3 14 -58 -93 -25 -49 -43 -96 -41 -104 3 -8 1 -11 -5 -7 -15
9 -22 -19 -9 -35 10 -10 8 -10 -6 0 -10 8 -42 14 -72 14 -33 0 -55 4 -55 11 0
6 -1 155 -3 330 -1 202 -6 321 -12 323 -7 2 -9 -109 -7 -322 l2 -325 -23 -9
c-13 -5 -48 -12 -78 -16 -50 -6 -55 -5 -64 17 -6 13 -23 46 -37 73 -14 28 -32
65 -40 83 -7 17 -16 32 -20 32 -13 0 -11 -5 42 -109 28 -54 50 -102 50 -105 0
-3 -16 -12 -36 -21 -22 -9 -33 -19 -28 -26 5 -8 3 -9 -5 -4 -8 4 -25 -1 -42
-14 -34 -25 -37 -26 -61 -4 -11 10 -18 12 -18 4 0 -6 7 -14 15 -17 22 -9 19
-27 -9 -53 -13 -12 -32 -38 -42 -57 -21 -39 -32 -42 -67 -14 -27 21 -37 25
-37 12 0 -4 16 -16 35 -26 40 -22 40 -24 20 -73 -8 -19 -15 -46 -15 -60 0 -28
-21 -39 -47 -25 -54 29 -8 418 71 596 14 32 26 60 26 61 0 2 -13 6 -29 10 -16
3 -35 13 -42 21 -19 23 -26 17 -63 -48 -99 -178 -153 -395 -156 -619 l-1 -107
33 -5 c18 -2 43 -1 56 4 35 14 125 11 254 -8 116 -16 119 -16 236 7 120 23
183 24 353 4 46 -5 69 -2 120 17 53 20 84 24 179 24 99 0 122 -3 164 -23 27
-12 46 -25 43 -28 -3 -3 -43 4 -88 15 -108 27 -159 26 -270 -5 -77 -23 -103
-26 -168 -20 -240 19 -246 19 -317 -2 -108 -33 -158 -36 -269 -16 -127 23
-199 22 -258 -4 -37 -16 -47 -18 -47 -7 0 8 8 19 18 24 9 6 12 11 5 11 -6 0
-15 -4 -18 -10 -13 -21 -26 -8 -60 59 -54 109 -76 199 -82 342 -6 141 10 247
53 353 113 279 366 479 662 526 80 12 225 3 318 -20z m32 -849 c13 -14 30 -43
39 -63 8 -21 18 -38 22 -38 4 0 8 -6 8 -12 0 -7 10 -41 22 -76 12 -35 19 -68
15 -74 -4 -6 1 -6 14 1 25 13 38 -1 17 -19 -23 -19 -104 -40 -154 -40 -26 0
-74 -7 -106 -16 -59 -17 -248 -27 -240 -14 2 4 -39 10 -93 14 -144 10 -145 10
-164 26 -17 13 -25 40 -13 40 3 0 17 -7 30 -16 17 -11 64 -19 147 -25 68 -5
143 -16 168 -25 44 -16 48 -15 90 3 l45 20 -51 -5 c-38 -3 -71 3 -135 24 -61
21 -101 29 -146 27 -35 0 -63 3 -63 7 0 5 18 60 40 121 22 62 40 115 40 118 0
9 -29 -35 -32 -50 -2 -7 -9 -20 -16 -28 -7 -7 -11 -20 -8 -28 4 -9 2 -11 -6
-7 -8 5 -9 2 -5 -9 3 -10 2 -17 -3 -17 -5 0 -15 -27 -22 -60 -8 -39 -17 -60
-26 -60 -11 0 -13 8 -7 38 4 20 8 44 9 52 0 8 7 21 14 28 12 13 16 34 13 61
-2 7 2 10 7 7 12 -7 24 22 15 36 -3 7 -1 8 5 4 7 -4 14 3 18 18 3 14 18 33 32
43 37 24 134 24 189 -1 37 -16 46 -17 73 -6 24 10 28 15 18 22 -9 7 -7 8 7 4
11 -3 36 -1 55 3 56 14 112 2 138 -28z m416 -396 c31 -9 56 -21 56 -26 0 -11
6 -12 -68 11 -84 26 -154 25 -249 -4 -124 -38 -145 -39 -265 -15 -97 19 -120
21 -182 11 -87 -13 -99 -8 -19 8 44 10 82 10 163 1 146 -15 198 -14 271 8 35
11 73 22 84 25 34 9 149 -2 209 -19z m4 -30 c62 -25 44 -30 -35 -10 -81 20
-139 16 -250 -20 -91 -29 -155 -31 -250 -9 -84 20 -194 14 -277 -15 -70 -25
-122 -26 -236 -6 -101 18 -185 19 -229 4 -44 -15 -52 -3 -10 15 52 21 124 25
208 10 84 -15 205 -17 236 -4 12 4 -6 6 -44 2 -38 -3 -109 2 -180 13 -97 15
-125 16 -173 6 -32 -7 -60 -17 -63 -22 -4 -5 -13 -9 -22 -9 -35 0 10 28 70 45
60 16 66 16 173 -5 122 -23 240 -23 370 0 64 11 81 10 168 -9 53 -11 111 -21
129 -20 28 0 105 19 202 49 43 13 163 5 213 -15z m-20 -27 c23 -6 42 -15 42
-19 0 -12 0 -12 -50 6 -68 24 -136 19 -253 -20 -117 -39 -142 -41 -237 -20
-97 21 -183 18 -285 -10 -109 -30 -181 -31 -294 -5 -78 18 -91 19 -139 7 -32
-9 -55 -11 -58 -5 -23 37 109 47 263 20 121 -21 128 -21 252 14 102 29 145 30
263 4 97 -22 144 -19 242 17 90 32 159 36 254 11z m-26 -18 c36 -11 55 -26 45
-37 -3 -3 -26 3 -51 12 -59 22 -114 16 -208 -26 -92 -40 -159 -47 -229 -23
-73 25 -191 23 -293 -5 -86 -23 -185 -27 -256 -10 -25 6 -87 11 -137 11 -90 1
-117 9 -70 22 36 10 98 6 162 -9 90 -22 186 -19 290 10 102 28 173 31 260 10
94 -22 149 -18 260 20 104 36 164 42 227 25z m9 -41 c39 -20 3 -33 -103 -34
-75 -2 -120 -8 -166 -24 -76 -25 -135 -26 -253 -5 -87 16 -89 16 -224 -11
-131 -27 -140 -27 -218 -14 -45 7 -118 13 -161 14 -57 0 -81 4 -84 13 -4 14
-4 14 298 -4 78 -5 110 -2 180 16 99 25 208 27 271 6 24 -9 65 -16 92 -16 44
0 69 7 212 61 52 20 117 19 156 -2z m-44 -45 c40 -11 13 -24 -49 -24 -33 0
-108 -12 -167 -26 -106 -26 -106 -26 -203 -10 -128 21 -173 20 -271 -5 -45
-12 -109 -22 -142 -23 -73 -1 -277 23 -289 34 -19 18 67 22 144 6 106 -21 170
-20 265 4 94 24 191 25 295 4 82 -16 99 -14 255 30 53 16 125 20 162 10z m-11
-43 c-4 -5 -30 -12 -59 -16 -28 -3 -78 -15 -110 -26 -68 -23 -161 -24 -237 -4
-79 21 -142 18 -250 -11 -86 -24 -106 -26 -215 -21 -120 6 -205 22 -205 38 0
5 10 7 23 5 12 -3 72 -10 132 -17 107 -12 114 -11 238 17 122 27 131 27 210
15 150 -24 186 -23 282 3 89 25 201 34 191 17z m-36 -36 c0 -10 -139 -45 -215
-54 -62 -7 -94 -6 -140 5 -88 20 -180 18 -245 -7 -100 -38 -318 -38 -370 1
l-24 18 49 -10 c90 -18 243 -13 315 11 95 31 163 36 243 17 90 -21 199 -19
262 4 46 17 125 27 125 15z m-80 -55 c-63 -48 -94 -55 -198 -41 -173 24 -221
24 -307 3 -116 -29 -244 -38 -280 -19 -27 14 -22 15 96 20 94 3 137 10 177 26
63 25 140 27 232 5 69 -16 141 -13 240 11 30 7 57 14 60 14 3 0 -6 -8 -20 -19z"/>
<path d="M1685 2419 c5 -8 37 -54 70 -104 34 -49 74 -111 90 -137 29 -52 49
-59 85 -30 34 27 19 55 -79 152 -78 76 -187 155 -166 119z"/>
<path d="M1185 2371 c-86 -69 -185 -185 -185 -217 0 -13 49 -44 69 -44 6 0 25
28 42 63 18 34 58 104 90 155 32 50 55 92 51 92 -4 -1 -34 -22 -67 -49z"/>
<path d="M1553 1718 l-63 -21 0 -123 c0 -138 2 -134 -70 -109 -23 8 -50 15
-59 15 -9 -1 9 -10 39 -20 64 -24 113 -25 196 -5 63 14 192 31 208 27 14 -4
-2 59 -34 126 -16 34 -31 62 -34 62 -6 0 -4 -5 33 -98 31 -78 31 -78 -50 -74
-50 3 -84 -1 -116 -13 -24 -9 -47 -15 -50 -12 -10 10 8 27 30 28 17 1 18 2 5
6 -10 2 -18 11 -18 19 0 8 -5 14 -12 14 -6 0 -8 3 -5 7 4 3 2 12 -4 19 -8 10
-8 15 2 18 40 13 42 14 18 15 -18 1 -28 8 -32 20 -5 21 10 31 48 31 21 0 30
-16 39 -72 1 -3 4 -10 9 -14 14 -14 7 -23 -20 -27 -26 -4 -25 -4 5 -6 19 0 31
-5 27 -11 -3 -5 0 -7 8 -4 8 3 14 13 12 22 -2 9 -4 17 -5 17 -1 0 -4 13 -6 29
-5 28 -4 28 36 24 44 -4 45 -3 27 27 -10 17 -18 19 -42 14 l-30 -7 33 -1 c40
-1 43 -21 2 -21 -16 0 -33 0 -37 0 -5 0 -8 3 -8 8 0 4 -4 12 -8 19 -4 7 0 13
10 16 17 4 17 5 1 6 -10 0 -18 5 -18 10 0 11 48 24 61 15 13 -8 7 28 -6 38
-17 13 -57 8 -122 -14z"/>
<path d="M1296 1721 c-4 -6 -5 -11 -1 -11 3 0 1 -9 -5 -20 -7 -14 -7 -20 0
-20 5 0 10 7 10 15 0 10 11 15 35 15 41 0 47 -17 8 -23 l-28 -4 27 -2 c25 -1
27 -3 18 -27 -16 -40 -13 -44 36 -44 38 0 45 -3 40 -16 -3 -9 -6 -22 -6 -30 0
-11 -10 -14 -37 -12 -33 3 -38 6 -36 26 2 12 -2 22 -8 22 -5 0 -8 -4 -4 -9 3
-5 1 -12 -4 -16 -6 -3 -8 -12 -4 -20 4 -12 -4 -15 -36 -15 -37 0 -41 2 -41 24
0 14 4 27 10 31 5 3 7 12 3 20 -4 12 4 15 33 16 l39 2 -35 7 c-28 5 -31 8 -17
14 9 5 26 6 37 3 11 -3 20 -1 20 5 0 5 -16 8 -36 6 -33 -3 -37 -7 -64 -68 -33
-75 -27 -86 43 -76 109 17 140 18 132 6 -5 -8 -22 -10 -46 -7 -22 3 -41 2 -44
-3 -4 -7 90 -24 98 -18 2 2 11 -3 20 -11 16 -12 17 -5 17 97 l0 110 -37 18
c-47 21 -128 31 -137 15z"/>
<path d="M613 2463 c-75 -90 -163 -240 -163 -277 0 -15 209 -108 223 -99 15 9
58 105 53 119 -3 8 1 14 8 14 8 0 32 25 55 55 49 65 52 56 -65 168 l-71 68
-40 -48z"/>
<path d="M2458 2135 c-49 -25 -66 -39 -62 -50 4 -8 2 -15 -4 -15 -6 0 -12 5
-14 10 -4 12 -58 -10 -58 -23 0 -5 7 -33 16 -62 12 -44 18 -53 32 -48 15 6 15
5 3 -10 -15 -19 -7 -102 11 -124 7 -9 7 -13 -1 -13 -6 0 -11 -7 -11 -15 0 -13
19 -15 128 -13 144 3 130 -8 117 100 -5 44 -10 56 -21 51 -8 -3 -14 0 -14 6 0
6 5 11 10 11 13 0 13 37 0 45 -6 4 -8 16 -5 26 4 12 -1 31 -11 47 -10 15 -17
33 -15 41 3 16 -18 71 -28 71 -3 -1 -36 -17 -73 -35z"/>
<path d="M401 2057 c-20 -67 -39 -179 -43 -267 l-3 -55 125 0 125 0 3 40 c1
22 12 89 23 148 12 60 20 110 18 111 -7 6 -213 86 -221 86 -4 0 -16 -28 -27
-63z"/>
<path d="M255 1938 l-78 -91 -26 29 c-14 16 -40 47 -58 69 -17 22 -34 37 -37
34 -3 -3 -12 -63 -21 -133 -11 -100 -12 -150 -4 -229 15 -150 1 -137 142 -137
110 0 123 -2 144 -22 13 -12 25 -20 27 -17 2 2 -2 36 -10 74 -23 117 -28 287
-11 405 9 57 15 106 13 107 -1 2 -38 -38 -81 -89z"/>
<path d="M2655 2008 c35 -160 31 -382 -11 -542 l-7 -30 30 22 c25 18 51 23
154 29 l124 8 8 55 c5 30 6 127 3 215 -6 161 -13 225 -25 225 -3 -1 -30 -32
-60 -70 l-54 -70 -33 38 c-18 20 -52 60 -76 89 -47 57 -61 65 -53 31z"/>
<path d="M2376 1708 c-3 -13 -7 -50 -10 -83 -3 -33 -13 -87 -22 -120 -9 -33
-17 -66 -18 -73 0 -8 42 -31 109 -58 60 -24 112 -44 116 -44 18 0 60 187 74
333 l7 67 -126 0 c-122 0 -126 -1 -130 -22z"/>
<path d="M443 1692 l-83 -3 0 -49 c0 -86 54 -314 81 -344 6 -7 193 72 221 94
11 8 -22 113 -40 128 -13 10 -14 15 -5 20 10 6 10 24 0 82 l-12 75 -40 0 c-22
0 -77 -1 -122 -3z"/>
<path d="M57 1423 c-7 -12 18 -127 44 -204 34 -100 133 -289 198 -375 246
-330 622 -551 1021 -599 297 -36 587 22 870 172 320 170 577 464 695 793 21
60 55 193 55 216 0 2 -59 3 -130 2 l-131 -3 -28 -80 c-103 -292 -334 -565
-584 -687 -92 -46 -210 -91 -322 -125 -85 -25 -397 -26 -502 -1 -162 40 -349
124 -464 209 -182 135 -350 359 -429 574 -19 50 -36 93 -39 96 -9 10 -249 21
-254 12z m2702 -208 c10 -11 26 -25 36 -31 27 -15 13 -49 -14 -34 -24 13 -114
13 -106 1 3 -5 1 -12 -5 -16 -19 -11 -10 -22 40 -49 33 -18 47 -31 43 -41 -7
-21 -21 -18 -68 10 -36 23 -41 23 -57 8 -17 -15 -15 -18 32 -50 33 -22 47 -38
44 -48 -4 -8 -8 -15 -11 -15 -4 0 -102 62 -122 77 -2 2 3 11 11 20 8 10 31 48
52 86 31 56 41 67 63 67 25 0 25 1 9 24 -9 14 -13 33 -9 42 6 15 9 14 25 -7
11 -13 27 -33 37 -44z m-2434 -20 c14 -13 25 -36 25 -50 0 -36 -42 -75 -80
-75 -41 0 -70 31 -70 75 0 29 6 39 33 55 42 26 63 25 92 -5z m65 -120 c0 -8
-18 -27 -40 -41 -22 -15 -40 -30 -40 -33 0 -5 21 -39 36 -60 2 -1 26 5 54 14
88 29 101 8 45 -80 -41 -63 -65 -72 -56 -21 4 22 -12 46 -32 46 -16 0 -33 17
-61 60 -21 34 -37 62 -35 64 2 2 29 19 59 39 56 35 70 38 70 12z m157 -197
c33 -37 42 -61 32 -80 -5 -10 -15 -18 -22 -18 -7 0 -17 -10 -22 -22 -15 -35
-40 -33 -82 6 l-38 35 50 50 c27 28 52 51 55 51 4 0 16 -10 27 -22z m1966 7
c9 -8 17 -18 19 -23 1 -4 15 -17 30 -29 23 -17 25 -23 14 -32 -11 -9 -19 -9
-35 1 -16 10 -23 10 -33 0 -9 -9 -8 -16 6 -31 18 -20 15 -41 -7 -41 -6 0 -33
21 -60 48 -26 26 -45 40 -42 32 3 -10 -5 -25 -19 -39 -33 -31 -23 -48 11 -21
37 29 55 9 24 -24 -34 -36 -16 -55 19 -21 16 15 33 24 39 21 17 -11 13 -19
-30 -55 l-41 -34 -45 44 -44 44 7 -30 c4 -16 11 -40 15 -53 24 -65 -4 -76 -72
-27 -28 20 -52 35 -54 33 -2 -2 9 -25 26 -51 33 -53 35 -63 14 -70 -9 -4 -25
13 -50 52 -19 32 -35 61 -35 64 0 3 16 13 34 22 34 16 36 16 70 -10 39 -30 41
-27 21 25 l-13 35 97 92 c53 51 101 92 108 93 6 0 18 -7 26 -15z m-1587 -296
c38 -42 1 -129 -56 -129 -43 0 -70 26 -70 68 1 78 77 115 126 61z m926 -119
c25 -26 29 -36 24 -63 -12 -64 -77 -87 -121 -42 -39 38 -29 106 18 125 36 14
47 11 79 -20z m-525 -11 c12 -11 11 -98 -2 -119 -8 -12 -85 -13 -104 -1 -13 9
-13 24 5 115 6 27 8 28 47 22 23 -4 47 -12 54 -17z"/>
<path d="M2273 1318 c-25 -47 -30 -64 -20 -71 8 -6 7 -7 -4 -4 -12 4 -31 -14
-64 -60 l-47 -66 83 -83 c46 -46 88 -84 94 -84 19 1 120 140 173 239 l52 98
-113 47 c-62 25 -115 46 -118 46 -2 0 -19 -28 -36 -62z"/>
<path d="M568 1307 c-86 -42 -107 -55 -102 -69 22 -71 190 -308 218 -308 11 0
53 42 145 142 l34 37 -35 38 c-43 48 -89 115 -117 171 -12 23 -25 42 -29 41
-4 0 -55 -24 -114 -52z"/>
<path d="M2051 1044 c-29 -25 -84 -62 -122 -85 -38 -22 -69 -43 -69 -47 0 -19
94 -222 103 -222 29 0 177 97 275 179 l53 44 -78 79 c-43 44 -85 83 -93 88
-10 5 -31 -6 -69 -36z"/>
<path d="M796 987 l-86 -92 32 -28 c104 -88 303 -207 318 -190 9 11 80 211 80
227 0 6 -24 24 -53 38 -29 14 -83 48 -119 76 -36 27 -70 52 -76 55 -5 4 -49
-35 -96 -86z"/>
<path d="M1745 880 c-27 -10 -89 -24 -137 -31 l-88 -13 0 -128 c0 -70 1 -128
3 -128 70 0 291 47 364 76 l31 14 -47 112 c-27 64 -54 114 -62 114 -8 1 -36
-6 -64 -16z"/>
<path d="M1170 858 c-38 -104 -69 -202 -66 -205 18 -19 290 -73 364 -73 9 0
12 32 12 128 l0 128 -93 12 c-51 6 -112 18 -136 27 -60 21 -67 19 -81 -17z"/>
</g>
</svg>
